<svg width="180" height="29" viewBox="0 0 180 29" fill="none" xmlns="http://www.w3.org/2000/svg">
<g clip-path="url(#clip0_1_857)">
<path d="M179.921 0.389262C180.134 0.233557 179.835 0.0700671 179.827 0C179.559 0.34255 179.992 0.443758 179.921 0.389262Z" fill="#D020C9"/>
<path d="M177.065 3.7446L177.049 3.59668L176.711 4.23507L177.065 3.7446Z" fill="#D020C9"/>
<path d="M173.611 6.01801C174.24 6.29828 174.846 5.16163 175.57 4.91251L175.743 4.95144V4.39868C175.114 5.03583 174.396 5.58108 173.611 6.01801Z" fill="#D020C9"/>
<path d="M171.101 6.04918C171.321 6.17374 170.778 6.43844 171.581 5.87012H171.47C171.352 5.93975 171.229 5.99964 171.101 6.04918Z" fill="#D020C9"/>
<path d="M171.471 5.86226C171.14 5.86226 171.833 5.64428 171.471 5.86226V5.86226Z" fill="#D020C9"/>
<path d="M169.771 6.89L170.188 6.46181C170.023 6.40731 169.566 6.60194 169.685 6.46181C169.212 6.78879 169.378 6.85107 169.771 6.89Z" fill="#D020C9"/>
<path d="M169.464 7.48936L169.692 7.28694C169.613 7.24023 169.543 7.27915 169.464 7.48936Z" fill="#D020C9"/>
<path d="M170.18 6.85889C170.023 7.00681 169.858 7.14694 169.692 7.28708C169.81 7.33379 169.897 7.48949 169.928 7.10802C169.952 7.24037 169.999 7.08466 170.18 6.85889Z" fill="#D020C9"/>
<path d="M170.534 6.76548C170.873 6.76548 171.274 6.60199 170.857 7.03797C171.793 6.46186 171.463 6.19716 170.534 6.76548Z" fill="#D020C9"/>
<path d="M173.721 6.61737L174.185 6.53173L174.413 6.1814C174.335 6.35267 173.611 6.46167 173.721 6.61737Z" fill="#D020C9"/>
<path d="M166.466 8.1123C166.466 8.23687 166.773 8.33029 166.868 8.44707L167.206 8.15902C166.931 8.17459 166.521 8.26801 166.466 8.1123Z" fill="#D020C9"/>
<path d="M166.828 8.44702L166.325 8.883C166.86 8.68836 166.915 8.55601 166.828 8.44702Z" fill="#D020C9"/>
<path d="M169.614 8.08885C169.866 7.80859 170.117 7.5361 170.401 7.24805L169.48 8.18228L169.614 8.08885Z" fill="#D020C9"/>
<path d="M164.184 9.02305L164.412 8.63379L163.972 9.25661L164.184 9.02305Z" fill="#D020C9"/>
<path d="M162.705 9.64582C162.87 9.33441 162.225 9.41227 162.437 9.17871C162.077 9.37514 161.759 9.63964 161.501 9.95723C161.857 9.72516 162.28 9.6157 162.705 9.64582Z" fill="#D020C9"/>
<path d="M161.053 10.3932C161.216 10.2622 161.366 10.1162 161.501 9.95728C161.331 10.08 161.18 10.2269 161.053 10.3932Z" fill="#D020C9"/>
<path d="M165.302 9.2488C165.219 9.18532 165.123 9.14114 165.021 9.11957C164.919 9.098 164.813 9.09959 164.711 9.12424L165.065 9.33444L165.302 9.2488Z" fill="#D020C9"/>
<path d="M165.365 9.22559H165.302C165.342 9.2723 165.357 9.2723 165.365 9.22559Z" fill="#D020C9"/>
<path d="M168.04 8.5249C167.78 8.85188 167.135 9.35792 167.953 9.30343C168.04 8.98423 167.599 9.01537 168.04 8.5249Z" fill="#D020C9"/>
<path d="M165.813 9.49023L166.466 9.30338C166.419 9.22553 166.261 9.15546 166.395 8.99976L165.813 9.49023Z" fill="#D020C9"/>
<path d="M165.538 9.71603L165.805 9.49805L165.561 9.56811L165.538 9.71603Z" fill="#D020C9"/>
<path d="M162.257 10.2844C162.01 10.5117 161.718 10.6842 161.399 10.7904C161.787 10.7224 162.169 10.6208 162.54 10.4868C162.532 10.3545 162.642 10.1365 162.257 10.2844Z" fill="#D020C9"/>
<path d="M163.642 9.86377L163.594 9.91048C163.642 9.91827 163.674 9.91827 163.642 9.86377Z" fill="#D020C9"/>
<path d="M157.984 11.9426L158.063 11.9815L158.055 11.927L157.984 11.9426Z" fill="#D020C9"/>
<path d="M162.626 10.5179C162.738 10.507 162.845 10.4712 162.941 10.4132C163.036 10.3552 163.117 10.2765 163.177 10.1831C162.974 10.3028 162.761 10.4044 162.54 10.4867C162.532 10.5334 162.532 10.5646 162.626 10.5179Z" fill="#D020C9"/>
<path d="M160.171 10.8683C160.352 10.8837 160.534 10.8837 160.714 10.8683C160.525 10.8216 160.171 10.7671 160.171 10.8683Z" fill="#D020C9"/>
<path d="M163.469 9.85603C163.381 9.79374 163.405 9.82489 163.469 9.85603V9.85603Z" fill="#D020C9"/>
<path d="M163.468 9.8562C163.359 9.95343 163.261 10.0632 163.177 10.1832C163.324 10.1042 163.463 10.013 163.594 9.9107C163.549 9.90218 163.506 9.88355 163.468 9.8562Z" fill="#D020C9"/>
<path d="M157.606 14.2937C157.559 13.99 158.22 13.5151 158.975 13.6008C159.534 13.1648 158.794 12.3551 158.062 11.9814C158.062 12.1138 158.125 12.2306 157.527 12.6043C157.811 12.6977 159.101 12.5342 158.637 12.9702C157.85 13.3828 157.897 13.0869 157.425 13.0558C157.905 13.3127 156.497 13.9355 156.859 14.4104L157.559 13.99C157.598 14.0679 157.37 14.2859 157.606 14.2937Z" fill="#D020C9"/>
<path d="M159.298 11.6079L159.55 11.4833C159.199 11.5231 158.843 11.494 158.503 11.3977C158.11 11.678 158.055 11.8103 158.055 11.9193C158.503 11.8025 158.936 11.6624 159.377 11.5378L159.298 11.6079Z" fill="#D020C9"/>
<path d="M160.738 11.0785C160.643 11.4678 160.053 11.857 160.565 12.0283C161.351 11.7325 161.013 11.5768 161.43 11.2498C160.21 11.7636 161.721 10.9539 160.753 11.0863C160.959 10.9629 161.175 10.8561 161.399 10.7671C161.17 10.8075 160.938 10.8335 160.706 10.8449C160.777 10.8449 160.801 10.8449 160.706 10.8449C160.718 10.8909 160.718 10.9391 160.706 10.9851C160.329 11.0396 160.628 10.9228 160.706 10.8449C160.785 10.7671 160.706 10.8449 160.706 10.7904L159.518 11.3899C159.936 11.336 160.346 11.2314 160.738 11.0785Z" fill="#D020C9"/>
<path d="M167.56 10.2455C167.505 10.2455 167.497 10.2455 167.489 10.191C167.481 10.1365 167.402 10.3 167.56 10.2455Z" fill="#D020C9"/>
<path d="M166.97 10.2766C167.008 10.1972 167.062 10.1268 167.13 10.0704C167.198 10.0139 167.278 9.97273 167.363 9.9496C167.654 9.9496 167.426 10.0975 167.489 10.1909C167.623 10.0352 168.001 9.70825 167.387 9.79389L167.316 9.87175C166.781 9.98074 165.986 9.87174 166.057 9.77832C166.315 10.016 166.629 10.1872 166.97 10.2766Z" fill="#D020C9"/>
<path d="M163.846 10.8215L162.87 11.3665L163.507 11.4444L163.413 11.2886C164.027 11.1329 163.822 10.9772 163.846 10.8215Z" fill="#D020C9"/>
<path d="M157.811 11.818L157.834 11.4443L157.386 12.1061L157.811 11.818Z" fill="#D020C9"/>
<path d="M156.458 12.285L156.41 11.9736L156.104 12.2617L156.458 12.285Z" fill="#D020C9"/>
<path d="M76.3719 27.6531L76.0493 27.7465C76.1598 27.7262 76.2678 27.6949 76.3719 27.6531Z" fill="#D020C9"/>
<path d="M78.7558 27.5908L78.803 27.4351C78.7007 27.5207 78.6535 27.583 78.7558 27.5908Z" fill="#D020C9"/>
<path d="M122.072 20.0703C121.561 19.8601 120.971 19.4942 121.081 19.829L121.27 20.1404C121.526 20.0485 121.803 20.0243 122.072 20.0703Z" fill="#D020C9"/>
<path d="M98.1201 24.7181L98.2617 24.8115L98.5608 24.469L98.1201 24.7181Z" fill="#D020C9"/>
<path d="M97.8845 26.1351L97.2393 25.9639C97.4467 26.0461 97.6633 26.1036 97.8845 26.1351Z" fill="#D020C9"/>
<path d="M63.3888 28.385L63.019 28.7431C63.617 28.7276 63.3888 28.5563 63.3888 28.385Z" fill="#D020C9"/>
<path d="M142.318 16.31C141.972 16.2731 141.622 16.2862 141.279 16.3489C141.806 16.419 142.263 16.5824 142.318 16.31Z" fill="#D020C9"/>
<path d="M77.1744 24.033C76.9776 24.103 76.8911 24.1731 76.8989 24.2509C77.1035 24.1887 77.2216 24.1186 77.1744 24.033Z" fill="#D020C9"/>
<path d="M140.13 16.6214H140.359C140.655 16.491 140.967 16.3994 141.287 16.3489C141.087 16.2959 140.876 16.293 140.674 16.3405C140.472 16.3881 140.285 16.4846 140.13 16.6214Z" fill="#D020C9"/>
<path d="M16.0517 26.789C16.0517 26.789 15.9809 26.789 15.9573 26.7345C15.9337 26.68 15.9809 26.7813 16.0517 26.789Z" fill="#D020C9"/>
<path d="M3.65869 20.0703C3.83743 20.1117 4.01349 20.1637 4.18589 20.226C4.02254 20.1396 3.84322 20.0866 3.65869 20.0703Z" fill="#D020C9"/>
<path d="M150.895 13.8109C150.895 13.7642 151.178 13.7097 150.895 13.8109V13.8109Z" fill="#D020C9"/>
<path d="M152.697 14.6907C152.67 14.7152 152.65 14.7456 152.637 14.7795C152.625 14.8133 152.621 14.8496 152.625 14.8853C152.625 14.8141 152.65 14.745 152.697 14.6907Z" fill="#D020C9"/>
<path d="M137.612 19.3152C137.676 19.3619 137.692 19.3697 137.612 19.3152V19.3152Z" fill="#D020C9"/>
<path d="M151.374 13.842C151.241 13.8264 151.106 13.8264 150.973 13.842C151.107 13.8546 151.241 13.8546 151.374 13.842Z" fill="#D020C9"/>
<path d="M151.272 13.7021H151.54C151.563 13.6009 151.516 13.5775 151.272 13.7021Z" fill="#D020C9"/>
<path d="M150.485 13.9432C150.645 13.8962 150.808 13.8624 150.973 13.842C150.91 13.842 150.879 13.842 150.895 13.842L150.485 13.9432Z" fill="#D020C9"/>
<path d="M41.5065 27.5908C41.5065 27.5908 41.4593 27.5908 41.4436 27.5908C41.1288 27.6998 41.2626 27.6765 41.5065 27.5908Z" fill="#D020C9"/>
<path d="M113.542 24.9983C113.657 24.8313 113.819 24.7024 114.009 24.6287C114.199 24.5551 114.406 24.54 114.605 24.5857L114.125 23.667L113.542 24.9983Z" fill="#D020C9"/>
<path d="M70.6827 27.9335L71.4695 28.2216C70.5411 28.7432 69.8958 28.5875 70.604 29.0001C70.6748 27.9491 73.6255 28.8055 73.6963 27.7389L74.2156 27.9413C74.0661 27.9413 74.0504 28.0036 73.9009 27.9958C74.9159 28.4707 74.6169 27.2173 75.9073 27.3107C76.3558 27.3808 76.6942 27.5209 76.3716 27.661L77.363 27.3652C77.6542 27.3652 77.5834 27.5598 77.3001 27.552L78.8187 27.4119C79.112 27.1954 79.4225 27.0027 79.7472 26.8358C80.1406 26.9759 79.5583 26.9604 79.6606 27.0849L80.4947 26.7969C80.8488 27.0538 80.1642 27.3496 79.582 27.334C80.4082 28.3539 80.2665 27.0382 81.9897 27.5832L81.2029 27.7467C81.7379 28.3228 82.3517 28.0814 83.2723 28.4162C83.0441 28.2293 81.4232 27.552 82.3281 27.2484C82.6947 27.3433 83.0842 27.293 83.4139 27.1083C83.4139 27.482 83.9096 27.373 84.5155 27.3185V27.8245C85.1607 27.6455 85.0978 27.3963 85.4676 27.155C85.7002 27.1432 85.9306 27.2047 86.1257 27.3306C86.3208 27.4564 86.4706 27.6403 86.5535 27.8557C87.7259 27.8557 85.7194 27.2873 87.0885 27.0771C88.0417 27.1497 88.9982 26.9893 89.8739 26.61C90.5585 26.7424 89.7717 26.9214 90.0234 27.0538L90.6058 26.6178C90.7474 26.6178 90.708 26.7424 90.6923 26.8124C91.188 26.6256 90.6923 26.3064 91.4791 26.1273C91.6601 25.5746 93.163 26.828 94.0994 26.1273C94.3512 26.2519 94.005 26.4387 94.0994 26.6256C94.8758 26.3897 95.6168 26.0519 96.3026 25.6213L97.2704 25.886C96.5465 25.559 97.4041 25.053 98.1516 24.6404C97.892 24.4769 97.6638 24.3367 97.5222 24.2667L98.7339 23.9163C98.8913 23.9864 98.7811 24.1655 98.5923 24.3912L98.7969 24.3679C99.2454 24.5236 99.0408 24.8272 98.7496 25.1464L98.2775 24.8739C97.9943 25.1931 97.7346 25.5512 97.8212 25.8315C97.9409 25.7549 98.0745 25.702 98.2146 25.6758C98.1438 25.7614 98.0965 25.8393 98.1438 25.886C98.191 25.9327 98.309 25.8159 98.4978 25.6758L98.8205 26.2052L98.8755 25.9794L100.52 26.1974C101.63 25.5357 102.566 24.6404 104.376 24.2511C103.959 24.6949 104.336 24.9206 104.376 25.4033C103.825 24.9362 102.975 25.7381 102.015 25.7147C102.519 25.7147 102.432 25.9638 102.314 26.0573L103.966 25.45C103.966 25.8471 104.36 25.7147 104.816 25.8393C104.407 25.0608 106.036 25.2242 106.697 24.8973C106.768 25.1542 106.626 25.4422 105.776 25.4578C106.768 25.9561 106.886 24.4302 107.846 24.8272C107.641 24.8272 107.531 24.8272 107.46 24.9673C107.916 24.6871 109.105 24.7493 108.853 24.9673H108.656C110.025 24.9206 112.811 24.5469 112.929 23.8618C112.92 24.186 112.87 24.5078 112.779 24.8194L114.935 22.297C114.794 22.8887 115.777 24.1343 114.691 24.5936C115.171 24.6712 115.662 24.6005 116.1 24.3912C115.864 24.3367 115.439 23.6127 115.738 23.5582C116.271 23.8616 116.846 24.0871 117.445 24.2277C117.099 24.1499 117.351 23.2157 117.878 23.1767C117.815 23.3247 118.035 24.0487 117.878 24.1655L119.058 23.13C118.759 23.3247 119.105 23.9085 119.428 24.0798C119.271 23.9397 120.561 23.9319 120.892 23.7996L120.309 23.675C121.804 23.5893 121.584 22.2425 123.04 22.0712C122.89 22.2736 122.772 23.239 123.535 23.239C123.803 22.7408 124.7 20.9034 125.896 20.3507L126.179 20.5609L127.108 20.1016C126.293 21.2508 125.339 22.2967 124.267 23.2157C124.849 23.3402 124.464 23.4959 125.29 23.348C125.613 23.5426 124.897 23.7762 124.653 23.8229L126.604 23.6906C126.431 23.1845 127.981 22.912 127.832 22.4994C127.171 22.7875 126.51 23.1067 125.841 23.3791C125.676 22.8887 126.801 21.7287 128.162 21.573C128.54 21.7209 128.068 22.5383 128.162 22.7018C128.562 22.4167 129.039 22.2567 129.531 22.2425L129.012 22.6162C129.799 22.6785 130.114 21.7209 131.113 22.0557C131.428 22.0557 132.167 22.5539 132.167 22.2347C131.843 21.8507 131.606 21.4029 131.47 20.921C131.334 20.4392 131.304 19.9342 131.38 19.4398C132.105 19.5459 132.821 19.7073 133.521 19.9225C134.126 20.2806 132.97 21.1759 133.521 21.4796C133.521 21.3394 133.765 21.1059 133.867 21.028C134.221 21.0825 133.82 21.4873 134.52 21.2849C134.52 20.74 135.968 21.028 134.764 20.7711C135.425 20.483 135.551 20.7711 136.338 20.5375C136.007 20.2573 136.825 19.2452 137.486 18.9805C137.486 19.1206 137.659 19.2608 137.754 19.323C139.178 19.0895 139.989 19.1596 141.303 18.8481C141.452 18.9416 142.089 18.9416 141.901 19.2296C142.088 19.0165 142.33 18.8578 142.601 18.7703C143.498 19.0272 141.72 19.0506 142.443 19.4476C142.443 19.1362 143.396 18.7859 143.923 18.4589C143.632 18.0385 142.569 18.6847 142.034 19.0116C141.885 18.3732 142.727 17.4546 144.017 16.8473C145.056 16.4347 144.584 17.151 144.749 17.0186C146.818 16.6527 146.189 15.4616 147.983 15.4616C148.77 15.6873 148.227 16.2401 148.455 16.5048C147.621 16.9018 147.039 16.6138 146.449 16.7928H147.235C146.908 17.0603 146.503 17.216 146.079 17.2366C146.74 17.4468 149.517 16.3724 151.178 16.2868C151.421 16.0766 151.854 15.8041 151.579 15.7029L151.107 15.8975C150.556 15.6951 151.894 15.1969 151.233 15.2124C151.86 14.6713 152.62 14.3011 153.436 14.1381L153.743 14.5429C153.688 14.4183 153.066 14.4573 152.846 14.6753C153.168 14.3561 154.419 14.8621 154.679 14.1303L153.939 14.0135C154.53 13.5853 155.183 12.8457 156.04 12.7445C155.529 12.402 155.867 12.8535 155.128 12.5032C155.828 13.0014 153.042 13.1182 154.057 13.5542C153.271 13.126 152.956 13.6165 152.027 13.3284C152.098 13.4685 152.389 13.5464 151.681 13.6554C151.654 13.7179 151.617 13.7757 151.571 13.8267C151.719 13.8332 151.863 13.8789 151.988 13.959C151.752 14.4028 150.65 14.6908 150.328 14.9711C149.895 14.9711 150.454 14.7453 150.178 14.6441L149.706 15.0645C149.549 14.7453 148.463 14.7998 149.368 14.3405L148.494 14.5663C147.919 14.5047 147.337 14.616 146.826 14.8855C146.393 14.8855 145.89 15.5394 146.181 15.1813C145.748 15.3759 145.308 15.555 144.867 15.734V15.6484C143.506 15.9287 142.215 16.8707 140.524 16.6216C140.007 16.8876 139.443 17.0515 138.863 17.1042L138.643 16.8396C138.076 17.0653 136.818 16.9096 136.629 17.2677C135.842 16.5982 133.741 17.6804 132.694 17.7504V18.1397C131.925 18.2873 131.172 18.5063 130.444 18.7936L130.57 19.1284C129.846 19.5488 128.548 19.2296 127.336 19.4787C127.399 19.3308 127.714 19.3153 127.942 19.3542C126.368 18.8481 124.975 20.4441 123.559 20.0626C123.443 20.1335 123.313 20.1804 123.178 20.2005C123.042 20.2206 122.905 20.2134 122.772 20.1794H122.851H122.717C122.56 20.1405 122.402 20.0938 122.229 20.0626C122.36 20.1232 122.497 20.1677 122.638 20.195C122.298 20.2548 121.966 20.3514 121.647 20.483L121.427 20.1327H121.34C120.955 20.0549 121.073 20.3507 121.34 20.5998C121.173 20.6808 121.017 20.7828 120.876 20.9034C120.49 20.3507 119.908 21.2538 119.412 20.6699C119.2 21.0202 117.532 21.1526 117.422 21.8299C117.422 21.752 117.28 21.7209 117.485 21.6898C117.066 21.6236 116.636 21.689 116.257 21.8766L116.021 21.4328L115.171 22.2114C114.573 21.9934 114.321 21.8532 114.833 21.4328C113.558 22.1569 113.771 21.7754 112.685 22.4761V22.1647C112.276 22.2191 111.662 22.7018 111.386 22.4761C110.403 21.9778 106.831 22.8887 104.423 22.5461C104.958 23.4103 103.282 22.2347 103.258 22.9432C103.101 22.7408 102.755 22.6473 103.125 22.4293C101.936 22.7408 101.283 22.2425 100.504 22.9042C100.347 22.7018 100.732 22.5695 100.599 22.4527C100.512 22.5072 100.237 22.6707 100.103 22.5539C99.9692 22.4371 100.26 22.3593 100.441 22.2503C99.2218 22.3904 99.1431 23.0288 99.1037 23.6906C98.8841 23.5548 98.6212 23.505 98.3664 23.5511C98.1117 23.5972 97.8836 23.7358 97.7267 23.9397C97.4907 23.7528 97.113 23.566 97.8763 23.4414C97.4435 23.4414 95.2167 23.3247 95.2088 23.8229C95.0672 23.7061 94.603 23.8229 94.4928 23.893C93.8222 23.8926 93.1522 23.9316 92.4863 24.0098L92.7538 24.072C92.4234 24.6949 91.967 24.2511 91.1801 24.3679V24.3056C89.394 23.9708 90.4326 24.5547 88.6701 24.1577L88.7803 24.5236C88.6701 25.3021 87.2066 24.1343 86.2309 24.5236L86.6007 24.7182C86.0656 25.0218 85.027 23.7061 84.4526 23.6283C84.3267 23.566 84.6336 23.5115 84.7988 23.4492C83.3353 23.0444 84.6414 23.9475 83.5634 24.111C83.351 23.854 83.7916 23.4259 83.0598 23.4103C82.69 23.2157 80.9983 24.3601 79.9833 23.893C80.2115 24.0876 80.4317 24.2822 79.9439 24.4535C79.157 24.5625 77.8352 23.7762 77.1663 24.4535C77.064 24.399 77.0247 24.3445 77.0168 24.2978C76.4346 24.4847 75.1205 24.6404 74.7743 24.9985C74.192 23.7295 71.1469 25.777 71.1154 24.5547L69.3136 24.6715V24.5469C68.9667 24.4993 68.6135 24.5231 68.2764 24.6169C67.9392 24.7107 67.6253 24.8724 67.3543 25.0919C67.0867 25.0218 67.2835 24.9051 67.2992 24.8428C66.1889 24.573 65.0159 24.7464 64.0338 25.3255L63.8764 24.944C63.4987 25.1775 61.4214 24.3912 59.7769 24.8817C59.791 24.8412 59.8137 24.8043 59.8436 24.7734C59.8735 24.7425 59.9098 24.7183 59.95 24.7026C58.1009 25.2009 55.465 23.7295 54.8119 25.1464L53.5844 25.5201C55.1581 25.5979 53.3641 26.1351 54.0172 26.3531C53.3956 26.4465 52.3884 25.9638 53.1595 25.8704L53.2854 25.9405C53.5529 25.2009 51.2947 25.7225 51.334 25.2242C48.1866 25.3177 45.1415 24.9673 42.2144 24.944L42.5528 25.5123H41.5377C41.2623 25.38 41.1758 25.0685 41.8997 25.0841C41.5141 24.7727 40.68 25.3644 40.6643 25.4812C39.2401 25.2476 41.2151 24.8194 40.7823 24.8038L40.1843 24.8428L40.3181 24.9128C39.8381 25.1464 39.7988 25.3877 38.9254 25.3644C38.3667 25.2476 38.6421 25.0063 38.4218 24.9829C38.4218 24.944 38.351 24.9284 38.0913 24.9829L36.8087 24.9128L37.3123 25.3722C36.7458 25.5824 36.1085 25.3255 36.6907 25.8471C35.8331 25.0685 31.9145 25.4422 31.3873 25.1775C30.5551 25.4211 29.6774 25.4717 28.8222 25.3255C29.0583 25.4344 29.1763 25.9405 28.3344 25.8393C28.7121 24.8272 26.8315 25.271 26.2177 24.4691C26.7764 25.0218 23.8572 24.4068 24.7227 25.1853C24.0303 25.0296 24.7227 24.7961 24.2113 24.4924C23.3069 24.5705 22.3957 24.4888 21.5202 24.2511C20.5473 23.9459 19.5495 23.7245 18.5381 23.5893C18.483 23.7217 18.7899 23.9786 18.3256 24.111L17.3735 23.2624C16.9644 23.2624 16.8699 23.9786 16.2247 23.3869C16.3113 23.5193 16.4372 23.7139 16.1618 23.7139C14.2103 23.1326 12.2268 22.6622 10.221 22.3048C9.21543 22.1067 8.2284 21.8255 7.27035 21.464C6.29303 21.1191 5.37488 20.6281 4.54786 20.0081C4.97276 20.4363 4.62654 20.3429 4.22524 20.2106C4.4613 20.3585 4.10723 20.5298 4.09149 20.7244C3.61938 20.3663 3.1394 20.0471 2.68302 19.6656C2.21091 20.0237 0.999158 19.0116 0.637207 19.4009L1.17226 19.5255C0.27525 19.7902 1.61289 21.0825 1.24307 21.752C2.22664 21.4718 2.94268 23.4336 4.54786 22.9899C4.78391 23.239 4.23312 23.1378 4.32754 23.3558C4.76031 23.1612 5.16161 23.2468 5.86191 23.5971L5.75174 23.6438C6.61747 23.862 7.46253 24.1537 8.27752 24.5158C9.06437 24.8038 9.85123 25.1308 10.9843 25.5279L10.8977 25.1308C11.1861 25.2317 11.4529 25.3848 11.6846 25.5824C12.3928 25.1775 10.2604 25.2165 10.9371 24.7338C11.4328 25.6602 14.5251 25.5123 14.8241 26.4465C15.611 26.5789 14.6668 25.9872 15.4615 26.1195L15.6267 26.3842L15.8785 26.1273C16.39 26.2597 16.6103 26.5867 16.5945 26.7891C16.4246 26.7694 16.253 26.7694 16.0831 26.7891C16.7204 27.1706 18.0109 27.0304 18.2312 27.1316C17.9794 27.0538 17.7355 26.9604 17.4837 26.8747C18.5853 26.9448 19.797 27.1083 20.993 27.264C22.1459 27.417 23.3123 27.4431 24.4709 27.3418L24.3214 27.155C25.9581 26.9759 25.5961 27.443 27.3665 27.4353H27.3036C27.7229 27.2808 28.1733 27.2275 28.6176 27.2795C28.1612 27.4586 29.4045 27.7155 28.8379 27.9102C30.6005 27.661 29.7192 27.6844 30.8916 27.1316L31.1277 27.482C31.4976 27.1787 31.97 27.0257 32.4496 27.0538C31.7178 27.2796 32.9925 27.5131 32.1742 27.8323C34.0075 28.5252 34.936 27.2796 35.7544 28.2138C36.6199 27.4353 34.1807 27.7467 34.6528 27.5832C34.2594 27.3107 35.3609 26.9993 35.9353 27.0849C36.5097 27.1706 36.9189 28.1281 38.3982 28.1281C38.2565 28.1281 38.2408 28.1826 38.0992 28.1826C38.65 28.3851 39.185 27.9102 39.8617 28.2371C40.2473 27.7544 40.7509 28.2371 40.8531 27.6532L39.4998 27.7934C40.2866 27.6299 40.9869 26.9214 42.2538 27.2562C42.0375 27.4315 41.789 27.5637 41.522 27.6455C41.8918 27.8245 42.238 27.5209 42.6157 27.7C42.5134 28.3228 40.9712 27.8479 40.145 28.315C40.5463 28.5719 41.7187 27.8712 41.2938 28.5408C41.8839 27.6844 42.7573 28.6342 43.7487 27.9802L43.6858 28.3461C43.9318 28.2235 44.1986 28.147 44.4727 28.1204L43.9533 28.603C44.7402 28.1904 45.527 28.9378 46.3139 28.712C44.6851 28.712 45.9441 28.2683 45.2517 28.0114C47.2503 27.482 46.424 28.9612 48.6666 28.7432C48.3597 28.8055 47.5178 28.5485 47.9899 28.3617C48.434 28.4123 48.8641 28.5471 49.2567 28.7587C50.736 28.6498 49.0206 28.3773 49.6501 28.1437C50.1616 28.5797 50.3741 27.9413 51.0193 27.7856V28.1593C52.7189 28.3695 51.4521 27.3808 52.9785 27.6299L52.349 28.1671L53.1359 28.0191L52.9864 28.4473C53.6091 28.1802 54.3038 28.1255 54.9614 28.2916C54.7568 28.0347 55.0558 27.6065 55.8033 27.5832C56.3226 27.7934 55.5279 27.9413 56.5902 27.8712C56.3541 28.1126 56.0945 28.4084 55.6302 28.0736C55.583 28.1982 55.3942 28.315 55.347 28.4318C55.93 28.5599 56.5343 28.5599 57.1174 28.4318C56.9749 28.43 56.8337 28.4036 56.7003 28.3539L58.2268 27.8012C58.4786 27.9335 58.2819 28.0503 58.0931 28.1671C58.4146 28.0574 58.7432 27.9689 59.0766 27.9024C58.9665 28.206 58.9979 28.5252 58.3527 28.6809L59.8163 28.3072C59.9186 28.4395 60.6031 28.6575 60.3907 28.7743C61.1775 28.9378 62.3735 28.1359 63.4594 28.3539C63.5692 28.2574 63.7068 28.1975 63.8528 28.1826C64.8679 28.2293 65.7727 28.5797 67.0002 28.1281L67.6926 28.6575C68.6368 28.5096 66.7563 27.988 68.3143 27.7467C69.4237 27.5365 68.747 28.1982 69.1404 28.3383C69.4959 28.0748 69.9082 27.8963 70.345 27.8166C70.7818 27.7369 71.2313 27.7583 71.6584 27.879C71.336 27.9311 71.0089 27.9494 70.6827 27.9335ZM82.273 27.264C82.0527 27.3574 81.612 27.6221 81.4389 27.4041C81.6907 26.9604 81.9032 27.1628 82.273 27.264ZM99.8591 25.3021C99.7017 25.4422 99.4421 25.4033 99.1352 25.3021C99.3779 25.2415 99.6321 25.2415 99.8748 25.3021H99.8591ZM147.739 14.9789C147.22 15.0256 147.401 15.0256 147.755 14.9789H147.739ZM148.778 14.8699C148.864 14.792 148.841 14.7375 148.778 14.6986C148.73 14.8154 148.51 14.8777 148.25 14.9244C148.368 15.0256 148.518 15.0256 148.793 14.8699H148.778ZM38.2093 25.053L38.4139 25.1542C37.9733 25.2554 38.0992 25.1464 38.2093 25.053Z" fill="#D020C9"/>
<path d="M97.9157 25.9715C97.8625 25.9141 97.8246 25.8445 97.8055 25.769C97.7268 25.8391 97.7268 25.9247 97.9157 25.9715Z" fill="#D020C9"/>
<path d="M63.4597 28.3228C63.4535 28.3431 63.4535 28.3647 63.4597 28.385V28.3228Z" fill="#D020C9"/>
<path d="M133.836 21.6041C133.679 21.6061 133.525 21.5686 133.387 21.4951C133.419 21.5885 133.505 21.6508 133.836 21.6041Z" fill="#D020C9"/>
<path d="M153.876 12.7522L153.271 13.0403C153.464 12.9685 153.673 12.9497 153.876 12.9858C153.821 12.9079 153.664 12.8223 153.876 12.7522Z" fill="#D020C9"/>
<path d="M160.061 13.2426C160.14 13.1725 160.258 13.1725 160.329 13.1025L160.25 12.939C159.865 13.0869 159.628 13.3127 160.061 13.2426Z" fill="#D020C9"/>
<path d="M154.813 13.7644C154.955 14.0524 155.324 13.8266 155.749 13.632H155.671C155.671 13.196 155.238 13.4685 154.813 13.7644Z" fill="#D020C9"/>
<path d="M155.852 13.593C155.975 13.5377 156.104 13.4959 156.237 13.4685C156.237 13.2738 156.08 13.4685 155.852 13.593Z" fill="#D020C9"/>
<path d="M149.998 14.3248C150.234 14.3248 149.998 13.8967 150.179 13.9901C150.304 13.5385 148.896 14.8387 149.998 14.3248Z" fill="#D020C9"/>
<path d="M155.482 14.6517L155.206 14.3325L155.049 14.7062L155.482 14.6517Z" fill="#D020C9"/>
<path d="M151.878 15.4458L152.625 15.3524C152.625 15.2901 152.673 15.2278 152.775 15.1655C152.303 15.2901 151.823 15.3368 151.878 15.4458Z" fill="#D020C9"/>
<path d="M152.775 15.1657C152.975 15.122 153.165 15.04 153.334 14.9243C153.139 14.9835 152.951 15.0645 152.775 15.1657Z" fill="#D020C9"/>
<path d="M154.545 15.0644L154.309 15.0566L153.798 15.1812L154.545 15.0644Z" fill="#D020C9"/>
<path d="M144.12 17.4155L143.333 17.7036C143.278 17.8593 143.514 17.8826 143.797 17.7659C143.986 17.6257 144.269 17.509 144.12 17.4155Z" fill="#D020C9"/>
<path d="M146.795 17.8592C146.567 17.8592 146.527 17.758 146.378 17.6646L146.472 18.1395L146.795 17.8592Z" fill="#D020C9"/>
<path d="M144.49 18.5366C144.442 18.6845 143.427 19.1827 144.427 18.918C144.482 18.7701 145.221 18.4743 144.49 18.5366Z" fill="#D020C9"/>
<path d="M132.34 20.5452L132.537 20.5063L132.364 19.7278L132.34 20.5452Z" fill="#D020C9"/>
<path d="M121.938 24.1809C122.93 24.2276 122.095 23.6593 123 23.7683C123.197 23.5503 122.261 23.6827 122.465 23.488C121.915 23.7683 121.615 23.706 121.938 24.1809Z" fill="#D020C9"/>
<path d="M122.465 23.4882L122.741 23.3247C122.641 23.3654 122.548 23.4205 122.465 23.4882Z" fill="#D020C9"/>
<path d="M1.75451 18.8793L1.25879 18.4978L1.51845 18.8948L1.75451 18.8793Z" fill="#D020C9"/>
<path d="M0.44025 18.9804L0.511063 18.4666L-0.0161133 18.7468C0.141257 18.778 0.44025 18.8402 0.44025 18.9804Z" fill="#D020C9"/>
<path d="M84.0671 28.2059L84.1064 28.0813C84.0041 27.9568 83.8625 27.9568 83.5635 27.949L84.0671 28.2059Z" fill="#D020C9"/>
<path d="M75.6006 28.1747L75.7501 28.1825L75.4668 27.731L75.6006 28.1747Z" fill="#D020C9"/>
<path d="M68.5425 28.9766C68.8336 28.9766 69.172 28.8754 69.4631 28.8831C68.8336 28.9844 68.4481 28.4082 68.5425 28.9766Z" fill="#D020C9"/>
</g>
<defs>
<clipPath id="clip0_1_857">
<rect width="180" height="29" fill="white"/>
</clipPath>
</defs>
</svg>
